<svg xmlns="http://www.w3.org/2000/svg" width="80" height="80" viewBox="0 0 80 80" fill="none"><rect width="80" height="80" rx="40" fill="#C01933"></rect><rect x="28.3291" y="28.75" width="5.12008" height="5.12008" fill="white"></rect><rect x="46.8389" y="28.75" width="5.12008" height="5.12008" fill="white"></rect><path fill-rule="evenodd" clip-rule="evenodd" d="M49.3107 41.9388C49.3107 41.938 49.3107 41.9373 49.3107 41.9365L49.3085 41.9388H49.3107ZM40.146 53.3209C40.9054 53.3045 41.6611 53.2633 42.4086 53.1123C45.1455 52.6197 47.627 51.0376 49.3085 48.8454C50.0995 47.8148 50.712 46.6487 51.0916 45.4011C51.4713 44.2756 51.5821 43.1117 51.5956 41.9388H49.3107C49.2666 46.7674 45.3233 50.6828 40.4831 50.6828H40.146V53.3209Z" fill="white"></path><path fill-rule="evenodd" clip-rule="evenodd" d="M30.9843 41.9388C30.9843 41.938 30.9843 41.9373 30.9843 41.9365L30.9866 41.9388H30.9843ZM40.149 53.3209C39.3897 53.3045 38.6339 53.2633 37.8864 53.1123C35.1495 52.6197 32.668 51.0376 30.9866 48.8454C30.1956 47.8148 29.5831 46.6487 29.2034 45.4011C28.8237 44.2756 28.713 43.1117 28.6994 41.9388H30.9843C31.0285 46.7674 34.9717 50.6828 39.812 50.6828H40.149V53.3209Z" fill="white"></path><path fill-rule="evenodd" clip-rule="evenodd" d="M52.9988 42.0314V41.9365H55.295C55.2702 46.7639 52.922 51.0489 49.3173 53.7338C46.8493 55.5735 43.796 56.6606 40.4896 56.6606H40.146V54.025C40.9495 54.0348 41.7542 54.0205 42.5485 53.8898C45.1588 53.5169 47.507 52.2671 49.3173 50.4726C51.5321 48.2714 52.9356 45.2565 52.9988 42.0314Z" fill="white"></path><path fill-rule="evenodd" clip-rule="evenodd" d="M27.2962 42.0314V41.9365H25C25.0249 46.7639 27.373 51.0489 30.9778 53.7338C33.4457 55.5735 36.499 56.6606 39.8054 56.6606H40.149V54.025C39.3456 54.0348 38.5408 54.0205 37.7465 53.8898C35.1362 53.5169 32.7881 52.2671 30.9778 50.4726C28.763 48.2714 27.3595 45.2565 27.2962 42.0314Z" fill="white"></path></svg>