<svg xmlns="http://www.w3.org/2000/svg" width="80" height="80" viewBox="0 0 80 80" fill="none"><rect width="80" height="80" rx="40" fill="#C01933"></rect><path d="M46.7767 37.1896C46.6953 36.8709 46.5696 36.5652 46.4034 36.2814C46.2437 35.9862 46.0394 35.7173 45.7979 35.4842C45.4477 35.1352 45.033 34.8576 44.5769 34.6669C43.6588 34.2901 42.6292 34.2901 41.7111 34.6669C41.28 34.8494 40.8839 35.1054 40.5406 35.4237L40.4901 35.4842L39.8342 36.1401L39.1783 35.4842L39.1279 35.4237C38.7845 35.1054 38.3884 34.8494 37.9573 34.6669C37.0392 34.2901 36.0096 34.2901 35.0915 34.6669C34.6354 34.8576 34.2207 35.1352 33.8705 35.4842C33.3916 35.9503 33.0526 36.541 32.8917 37.1896C32.8062 37.519 32.7654 37.8584 32.7706 38.1987C32.7706 38.5196 32.811 38.8384 32.8917 39.1472C32.9763 39.4601 33.0983 39.7616 33.255 40.0453C33.4242 40.3369 33.6312 40.605 33.8705 40.8425L39.8342 46.8061L45.7979 40.8425C46.0371 40.6084 46.2419 40.3399 46.4034 40.0453C46.7311 39.4854 46.9019 38.8475 46.8978 38.1987C46.903 37.8584 46.8623 37.519 46.7767 37.1896Z" fill="white"></path><mask id="path-3-outside-1_1186_4088" maskUnits="userSpaceOnUse" x="22.75" y="22.75" width="34" height="34" fill="black"><rect fill="white" x="22.75" y="22.75" width="34" height="34"></rect><path fill-rule="evenodd" clip-rule="evenodd" d="M55.893 38.6645C55.9403 39.4459 55.8154 40.7986 55.7089 41.5642C55.3891 43.1608 54.664 44.6345 53.3591 45.7491C51.5278 47.3159 48.9623 47.7896 46.756 46.7476C45.6746 46.2385 44.7431 45.4175 44.0998 44.4111C43.7762 43.9059 43.5236 43.3494 43.3538 42.7692C43.3104 42.6231 43.0065 40.9931 43.1012 40.9931H45.4772C45.4772 43.1915 47.2652 44.9794 49.4636 44.9794C53.1223 44.9794 53.6748 41.1194 53.3749 38.3014C52.7 31.9548 47.6046 26.8674 41.2581 26.2003C32.7645 25.3084 25.6088 32.2587 26.1535 40.6892C26.6035 47.6396 32.354 53.2046 39.3123 53.4454C42.0452 53.5382 44.6059 52.8258 46.7789 51.5264L48.1668 53.4613C45.3594 55.1896 41.9844 56.0772 38.3887 55.7701C30.7082 55.1149 24.5116 48.9499 23.817 41.2733C22.9171 31.2957 31.2094 22.9679 41.1712 23.8086C44.1314 24.0572 46.9928 25.1544 49.3728 26.9305C50.249 27.5817 51.0541 28.3356 51.7764 29.1526C53.6748 31.2997 55.0681 33.9401 55.6404 36.7542C55.7667 37.3857 55.8535 38.0251 55.893 38.6645ZM55.8061 40.9892L55.7089 41.5642C55.7469 41.3742 55.7793 41.1823 55.8061 40.9892Z"></path></mask><path fill-rule="evenodd" clip-rule="evenodd" d="M55.893 38.6645C55.9403 39.4459 55.8154 40.7986 55.7089 41.5642C55.3891 43.1608 54.664 44.6345 53.3591 45.7491C51.5278 47.3159 48.9623 47.7896 46.756 46.7476C45.6746 46.2385 44.7431 45.4175 44.0998 44.4111C43.7762 43.9059 43.5236 43.3494 43.3538 42.7692C43.3104 42.6231 43.0065 40.9931 43.1012 40.9931H45.4772C45.4772 43.1915 47.2652 44.9794 49.4636 44.9794C53.1223 44.9794 53.6748 41.1194 53.3749 38.3014C52.7 31.9548 47.6046 26.8674 41.2581 26.2003C32.7645 25.3084 25.6088 32.2587 26.1535 40.6892C26.6035 47.6396 32.354 53.2046 39.3123 53.4454C42.0452 53.5382 44.6059 52.8258 46.7789 51.5264L48.1668 53.4613C45.3594 55.1896 41.9844 56.0772 38.3887 55.7701C30.7082 55.1149 24.5116 48.9499 23.817 41.2733C22.9171 31.2957 31.2094 22.9679 41.1712 23.8086C44.1314 24.0572 46.9928 25.1544 49.3728 26.9305C50.249 27.5817 51.0541 28.3356 51.7764 29.1526C53.6748 31.2997 55.0681 33.9401 55.6404 36.7542C55.7667 37.3857 55.8535 38.0251 55.893 38.6645ZM55.8061 40.9892L55.7089 41.5642C55.7469 41.3742 55.7793 41.1823 55.8061 40.9892Z" fill="white"></path><path d="M55.893 38.6645L56.392 38.6342L56.392 38.6337L55.893 38.6645ZM53.3591 45.7491L53.0344 45.3688L53.034 45.3691L53.3591 45.7491ZM46.756 46.7476L46.9695 46.2955L46.969 46.2952L46.756 46.7476ZM44.0998 44.4111L44.5211 44.1418L44.5208 44.1414L44.0998 44.4111ZM43.3538 42.7692L43.8337 42.6288L43.8331 42.6267L43.3538 42.7692ZM45.4772 40.9931H45.9772V40.4931H45.4772V40.9931ZM53.3749 38.3014L52.8777 38.3542L52.8777 38.3543L53.3749 38.3014ZM41.2581 26.2003L41.3103 25.7031L41.3103 25.7031L41.2581 26.2003ZM26.1535 40.6892L25.6546 40.7214L25.6546 40.7215L26.1535 40.6892ZM39.3123 53.4454L39.295 53.9451L39.2953 53.9451L39.3123 53.4454ZM46.7789 51.5264L47.1852 51.235L46.9171 50.8613L46.5223 51.0973L46.7789 51.5264ZM48.1668 53.4613L48.4289 53.8871L48.8858 53.6058L48.5731 53.1699L48.1668 53.4613ZM38.3887 55.7701L38.4313 55.2719L38.4312 55.2719L38.3887 55.7701ZM23.817 41.2733L23.319 41.3182L23.319 41.3184L23.817 41.2733ZM41.1712 23.8086L41.1292 24.3068L41.1294 24.3068L41.1712 23.8086ZM49.3728 26.9305L49.0737 27.3312L49.0745 27.3318L49.3728 26.9305ZM51.7764 29.1526L51.4018 29.4838L51.4018 29.4838L51.7764 29.1526ZM55.6404 36.7542L56.1307 36.6561L56.1303 36.6546L55.6404 36.7542ZM55.8061 40.9892L56.3014 41.0581L55.3131 40.9058L55.8061 40.9892ZM56.2041 41.6332C56.3116 40.8607 56.4425 39.4675 56.392 38.6342L55.3939 38.6947C55.4381 39.4244 55.3193 40.7364 55.2136 41.4953L56.2041 41.6332ZM53.6838 46.1293C55.0909 44.9275 55.8621 43.3449 56.1991 41.6624L55.2186 41.4661C54.916 42.9766 54.2372 44.3416 53.0344 45.3688L53.6838 46.1293ZM46.5425 47.1997C48.9451 48.3344 51.7191 47.8102 53.6841 46.129L53.034 45.3691C51.3364 46.8217 48.9795 47.2447 46.9695 46.2955L46.5425 47.1997ZM43.6785 44.6804C44.3724 45.7659 45.3759 46.6505 46.543 47.2L46.969 46.2952C45.9733 45.8265 45.1139 45.0692 44.5211 44.1418L43.6785 44.6804ZM42.874 42.9096C43.0569 43.5349 43.3292 44.135 43.6788 44.6808L44.5208 44.1414C44.2231 43.6767 43.9902 43.1638 43.8337 42.6288L42.874 42.9096ZM43.1012 40.4931C42.8871 40.4931 42.7493 40.6192 42.6864 40.7076C42.6311 40.7851 42.6104 40.8598 42.6027 40.8912C42.5856 40.9601 42.5837 41.0239 42.5832 41.056C42.5821 41.1311 42.5889 41.219 42.5972 41.3009C42.6146 41.4712 42.647 41.6913 42.6823 41.907C42.7502 42.3225 42.8419 42.8016 42.8746 42.9117L43.8331 42.6267C43.8347 42.6319 43.8293 42.6116 43.816 42.5483C43.8045 42.4936 43.7901 42.421 43.7739 42.3362C43.7415 42.1668 43.7032 41.9538 43.6692 41.7458C43.6349 41.5357 43.6064 41.3391 43.5921 41.1993C43.5846 41.126 43.5828 41.0855 43.5831 41.0709C43.5833 41.0581 43.5845 41.0868 43.5733 41.1317C43.5685 41.1511 43.5515 41.2166 43.5007 41.288C43.4421 41.3702 43.3095 41.4931 43.1012 41.4931V40.4931ZM45.4772 40.4931H43.1012V41.4931H45.4772V40.4931ZM49.4636 44.4794C47.5413 44.4794 45.9772 42.9154 45.9772 40.9931H44.9772C44.9772 43.4676 46.989 45.4794 49.4636 45.4794V44.4794ZM52.8777 38.3543C53.0235 39.7242 52.9541 41.2964 52.4433 42.5021C52.1909 43.0981 51.8384 43.5867 51.3675 43.927C50.9007 44.2644 50.2855 44.4794 49.4636 44.4794V45.4794C50.4709 45.4794 51.2969 45.2119 51.9533 44.7375C52.6057 44.266 53.0586 43.6135 53.3641 42.8922C53.9693 41.4634 54.0262 39.6965 53.8721 38.2484L52.8777 38.3543ZM41.2058 26.6976C47.3178 27.34 52.2277 32.2423 52.8777 38.3542L53.8721 38.2485C53.1722 31.6674 47.8913 26.3947 41.3103 25.7031L41.2058 26.6976ZM26.6525 40.657C26.1277 32.5343 33.0216 25.8381 41.2059 26.6976L41.3103 25.7031C32.5073 24.7786 25.09 31.9832 25.6546 40.7214L26.6525 40.657ZM39.3296 52.9457C32.6274 52.7138 27.0858 47.3502 26.6525 40.6569L25.6546 40.7215C26.1211 47.929 32.0806 53.6955 39.295 53.9451L39.3296 52.9457ZM46.5223 51.0973C44.4293 52.3488 41.9633 53.0351 39.3292 52.9457L39.2953 53.9451C42.1272 54.0412 44.7825 53.3027 47.0355 51.9556L46.5223 51.0973ZM48.5731 53.1699L47.1852 51.235L46.3726 51.8179L47.7605 53.7527L48.5731 53.1699ZM38.3462 56.2683C42.052 56.5848 45.5334 55.6696 48.4289 53.8871L47.9046 53.0355C45.1854 54.7096 41.9167 55.5696 38.4313 55.2719L38.3462 56.2683ZM23.319 41.3184C24.0355 49.2365 30.424 55.5925 38.3462 56.2683L38.4312 55.2719C30.9923 54.6373 24.9877 48.6634 24.3149 41.2283L23.319 41.3184ZM41.2133 23.3103C30.9418 22.4435 22.3912 31.0311 23.319 41.3182L24.315 41.2284C23.443 31.5604 31.477 23.4922 41.1292 24.3068L41.2133 23.3103ZM49.6718 26.5298C47.218 24.6986 44.2677 23.5669 41.2131 23.3103L41.1294 24.3068C43.9951 24.5475 46.7677 25.6103 49.0737 27.3312L49.6718 26.5298ZM52.151 28.8214C51.4079 27.9809 50.5775 27.203 49.671 26.5292L49.0745 27.3318C49.9204 27.9605 50.7003 28.6903 51.4018 29.4838L52.151 28.8214ZM56.1303 36.6546C55.539 33.7466 54.102 31.0279 52.151 28.8214L51.4018 29.4838C53.2477 31.5714 54.5972 34.1336 55.1504 36.8538L56.1303 36.6546ZM56.392 38.6337C56.351 37.9698 56.261 37.3079 56.1307 36.6561L55.1501 36.8523C55.2723 37.4634 55.356 38.0803 55.3939 38.6953L56.392 38.6337ZM55.3131 40.9058L55.2159 41.4809L56.2019 41.6476L56.2991 41.0725L55.3131 40.9058ZM56.1991 41.6624C56.2392 41.4623 56.2732 41.2607 56.3014 41.0581L55.3109 40.9203C55.2853 41.104 55.2546 41.286 55.2186 41.4661L56.1991 41.6624Z" fill="white" mask="url(#path-3-outside-1_1186_4088)"></path></svg>