<svg xmlns="http://www.w3.org/2000/svg" width="80" height="80" viewBox="0 0 80 80" fill="none"><rect width="80" height="80" rx="40" fill="#C01933"></rect><path d="M54.0276 50.1222H48.6375L44.4522 47.033V55.1953L41.3055 57.4998L41.3 44.3932C41.3 43.124 42.5379 42.2324 43.73 42.6414L54.0295 50.1222H54.0276Z" fill="white"></path><path d="M55.0002 49.1293L54.971 45.2111L47.7067 40.0017L54.971 34.7922L55.0002 30.874L44.4192 38.4967C43.3953 39.2353 43.3953 40.768 44.4192 41.5067L55.0002 49.1293Z" fill="white"></path><path d="M54.0276 29.8776H48.6375L44.4522 32.9668V24.8045L41.3055 22.5L41.3 35.6066C41.3 36.8758 42.5379 37.7674 43.73 37.3584L54.0295 29.8776H54.0276Z" fill="white"></path><path d="M27.2228 29.8776H32.6129L36.7982 32.9668V24.8045L39.9449 22.5L39.9504 35.6066C39.9504 36.8758 38.7125 37.7674 37.5204 37.3584L27.2228 29.8776Z" fill="white"></path><path d="M26.2501 30.8726L26.2794 34.7907L33.5437 40.0002L26.2794 45.2097L26.2501 49.1278L36.8312 41.5052C37.8551 40.7665 37.8551 39.2339 36.8312 38.4952L26.2501 30.8726Z" fill="white"></path><path d="M27.2228 50.1222H32.6129L36.7982 47.033V55.1953L39.9449 57.4998L39.9504 44.3932C39.9504 43.124 38.7125 42.2324 37.5204 42.6414L27.2228 50.1222Z" fill="white"></path></svg>