<svg xmlns="http://www.w3.org/2000/svg" width="100" height="100" viewBox="0 0 120 120" fill="none"><rect width="120" height="120" rx="60" fill="#014287"></rect><path d="M20.6174 60.7938L60.4059 83.7331L99.3824 60.7938" stroke="white" stroke-width="2"></path><path d="M60.4576 86.2499C62.3262 86.2499 63.8409 84.7352 63.8409 82.8666H57.0742C57.0742 84.7352 58.589 86.2499 60.4576 86.2499Z" fill="white"></path><path d="M28.3308 54.7056L23.8647 58.7656L60.456 79.7764V74.9043C60.456 74.9043 53.9091 69.4233 46.0935 64.7542C38.2779 60.0851 28.3308 54.7056 28.3308 54.7056Z" fill="white"></path><path d="M92.5813 54.7056L97.0474 58.7656L60.4562 79.7764V74.9043C60.4562 74.9043 67.003 69.4233 74.8186 64.7542C82.6342 60.0851 92.5813 54.7056 92.5813 54.7056Z" fill="white"></path><rect width="2.98265" height="41.1525" transform="matrix(-1 0 0 1 61.9473 36.1501)" fill="white"></rect><rect x="49.7527" y="37.8783" width="2.98265" height="40.2884" transform="rotate(-11.9226 49.7527 37.8783)" fill="white"></rect><rect width="2.98265" height="40.2884" transform="matrix(-0.978428 -0.20659 -0.20659 0.978428 71.1633 37.8783)" fill="white"></rect><path d="M39.8103 42.865L42.5052 41.6112L61.4782 76.5431L58.8566 77.9656L39.8103 42.865Z" fill="white"></path><path d="M81.1055 42.865L78.4106 41.6112L59.4376 76.5431L62.0592 77.9656L81.1055 42.865Z" fill="white"></path><path d="M31.2043 50.2634L33.7445 48.5612L62.4074 75.9062L60.4566 77.9661L31.2043 50.2634Z" fill="white"></path><path d="M89.7117 50.2634L87.1715 48.5612L58.5086 75.9062L60.4594 77.9661L89.7117 50.2634Z" fill="white"></path></svg>