<svg xmlns="http://www.w3.org/2000/svg" width="100" height="100" viewBox="0 0 120 120" fill="none"><rect width="120" height="120" rx="60" fill="#014287"></rect><mask id="path-2-outside-1_3270_2612" maskUnits="userSpaceOnUse" x="58.7866" y="29.0004" width="32" height="62" fill="black"><rect fill="white" x="58.7866" y="29.0004" width="32" height="62"></rect><path fill-rule="evenodd" clip-rule="evenodd" d="M59.7866 35.3883V30.0004C81.5299 30.522 96.261 52.9718 87.3636 72.9422C83.3853 82.0674 74.521 88.6571 64.7751 90.0734C65.0171 89.9748 65.3228 89.7646 65.6645 89.4823L68.1848 87.9431C70.6217 86.7181 72.843 85.0783 74.6893 83.0744C80.7937 76.6431 82.4906 66.5539 78.7105 58.5611C76.3566 53.4142 71.9095 49.2841 66.6305 47.3627C64.9204 46.7321 63.1376 46.3392 61.3416 46.1708V40.9513C81.794 43.7905 91.2659 69.0234 75.6401 84.0252C72.8834 86.6102 69.5061 88.4821 65.8943 89.5188C78.3605 86.3956 87.7829 74.7976 87.2711 61.5225C87.0631 50.8193 79.9452 40.7301 69.9187 37.0622C66.6734 35.8373 63.2168 35.2794 59.7866 35.3883Z"></path></mask><path fill-rule="evenodd" clip-rule="evenodd" d="M59.7866 35.3883V30.0004C81.5299 30.522 96.261 52.9718 87.3636 72.9422C83.3853 82.0674 74.521 88.6571 64.7751 90.0734C65.0171 89.9748 65.3228 89.7646 65.6645 89.4823L68.1848 87.9431C70.6217 86.7181 72.843 85.0783 74.6893 83.0744C80.7937 76.6431 82.4906 66.5539 78.7105 58.5611C76.3566 53.4142 71.9095 49.2841 66.6305 47.3627C64.9204 46.7321 63.1376 46.3392 61.3416 46.1708V40.9513C81.794 43.7905 91.2659 69.0234 75.6401 84.0252C72.8834 86.6102 69.5061 88.4821 65.8943 89.5188C78.3605 86.3956 87.7829 74.7976 87.2711 61.5225C87.0631 50.8193 79.9452 40.7301 69.9187 37.0622C66.6734 35.8373 63.2168 35.2794 59.7866 35.3883Z" fill="white"></path><path d="M59.7866 30.0004L59.7938 29.7005L59.4866 29.6931V30.0004H59.7866ZM59.7866 35.3883H59.4866V35.698L59.7961 35.6882L59.7866 35.3883ZM87.3636 72.9422L87.0895 72.8201L87.0886 72.8223L87.3636 72.9422ZM64.7751 90.0734L64.6619 89.7956L64.8182 90.3703L64.7751 90.0734ZM65.6645 89.4823L65.5081 89.2263L65.4899 89.2374L65.4735 89.251L65.6645 89.4823ZM68.1848 87.9431L68.0501 87.675L68.039 87.6806L68.0284 87.6871L68.1848 87.9431ZM74.6893 83.0744L74.4717 82.8678L74.4687 82.8711L74.6893 83.0744ZM78.7105 58.5611L78.4376 58.6859L78.4393 58.6894L78.7105 58.5611ZM66.6305 47.3627L66.5267 47.6441L66.5279 47.6446L66.6305 47.3627ZM61.3416 46.1708H61.0416V46.444L61.3136 46.4695L61.3416 46.1708ZM61.3416 40.9513L61.3829 40.6541L61.0416 40.6067V40.9513H61.3416ZM75.6401 84.0252L75.8454 84.244L75.8479 84.2416L75.6401 84.0252ZM65.8943 89.5188L65.8115 89.2304L65.9672 89.8098L65.8943 89.5188ZM87.2711 61.5225L86.9711 61.5284L86.9713 61.5341L87.2711 61.5225ZM69.9187 37.0622L69.8128 37.3428L69.8157 37.3439L69.9187 37.0622ZM59.4866 30.0004V35.3883H60.0866V30.0004H59.4866ZM87.6376 73.0643C96.6252 52.8915 81.7436 30.227 59.7938 29.7005L59.7794 30.3003C81.3162 30.817 95.8967 53.0521 87.0895 72.8201L87.6376 73.0643ZM64.8182 90.3703C74.6641 88.9394 83.6178 82.2849 87.6386 73.0621L87.0886 72.8223C83.1529 81.85 74.3778 88.3748 64.732 89.7765L64.8182 90.3703ZM65.4735 89.251C65.1362 89.5296 64.8595 89.715 64.6619 89.7956L64.8883 90.3512C65.1746 90.2345 65.5093 89.9996 65.8555 89.7136L65.4735 89.251ZM65.8209 89.7384L68.3412 88.1991L68.0284 87.6871L65.5081 89.2263L65.8209 89.7384ZM74.4687 82.8711C72.6482 84.8469 70.4566 86.4653 68.0501 87.675L68.3195 88.2111C70.7869 86.9708 73.0377 85.3097 74.91 83.2776L74.4687 82.8711ZM78.4393 58.6894C82.1655 66.5681 80.4925 76.5247 74.4717 82.8678L74.9069 83.2809C81.0949 76.7616 82.8158 66.5398 78.9817 58.4329L78.4393 58.6894ZM66.5279 47.6446C71.7305 49.5382 76.1167 53.6111 78.4377 58.6859L78.9833 58.4364C76.5964 53.2173 72.0886 49.03 66.7331 47.0807L66.5279 47.6446ZM61.3136 46.4695C63.0849 46.6356 64.8421 47.023 66.5267 47.6441L66.7343 47.0812C64.9987 46.4412 63.1903 46.0428 61.3696 45.8721L61.3136 46.4695ZM61.0416 40.9513V46.1708H61.6416V40.9513H61.0416ZM75.8479 84.2416C91.6684 69.0528 82.064 43.5251 61.3829 40.6541L61.3003 41.2484C81.5241 44.0559 90.8633 68.994 75.4324 83.8088L75.8479 84.2416ZM65.9771 89.8071C69.6326 88.7579 73.0525 86.863 75.8454 84.244L75.4349 83.8063C72.7144 86.3574 69.3795 88.2063 65.8115 89.2304L65.9771 89.8071ZM86.9713 61.5341C87.4773 74.6584 78.1589 86.1369 65.8214 89.2278L65.9672 89.8098C78.5622 86.6544 88.0884 74.9369 87.5709 61.511L86.9713 61.5341ZM69.8157 37.3439C79.7243 40.9687 86.7656 50.9472 86.9712 61.5284L87.5711 61.5167C87.3607 50.6914 80.1662 40.4914 70.0218 36.7804L69.8157 37.3439ZM59.7961 35.6882C63.1877 35.5804 66.605 36.1322 69.8128 37.3428L70.0247 36.7815C66.7418 35.5425 63.2459 34.9783 59.7771 35.0885L59.7961 35.6882Z" fill="white" mask="url(#path-2-outside-1_3270_2612)"></path><mask id="path-4-outside-2_3270_2612" maskUnits="userSpaceOnUse" x="29.2134" y="29.0731" width="32" height="62" fill="black"><rect fill="white" x="29.2134" y="29.0731" width="32" height="62"></rect><path fill-rule="evenodd" clip-rule="evenodd" d="M60.2134 84.6852V90.0731C38.4701 89.5515 23.739 67.1017 32.6364 47.1313C36.6147 38.0061 45.479 31.4164 55.2249 30.0001C54.983 30.0987 54.6774 30.3088 54.3358 30.5909L51.8146 32.1307C49.3779 33.3557 47.1569 34.9953 45.3107 36.9991C39.2063 43.4303 37.5094 53.5195 41.2895 61.5123C43.6434 66.6593 48.0905 70.7894 53.3695 72.7108C55.0796 73.3414 56.8624 73.7343 58.6584 73.9027V79.1222C38.206 76.283 28.7341 51.0501 44.3599 36.0483C47.1166 33.4633 50.4939 31.5914 54.1057 30.5547C41.6395 33.6779 32.2171 45.2758 32.7289 58.5509C32.9369 69.2542 40.0548 79.3434 50.0813 83.0113C53.3266 84.2362 56.7832 84.7941 60.2134 84.6852Z"></path></mask><path fill-rule="evenodd" clip-rule="evenodd" d="M60.2134 84.6852V90.0731C38.4701 89.5515 23.739 67.1017 32.6364 47.1313C36.6147 38.0061 45.479 31.4164 55.2249 30.0001C54.983 30.0987 54.6774 30.3088 54.3358 30.5909L51.8146 32.1307C49.3779 33.3557 47.1569 34.9953 45.3107 36.9991C39.2063 43.4303 37.5094 53.5195 41.2895 61.5123C43.6434 66.6593 48.0905 70.7894 53.3695 72.7108C55.0796 73.3414 56.8624 73.7343 58.6584 73.9027V79.1222C38.206 76.283 28.7341 51.0501 44.3599 36.0483C47.1166 33.4633 50.4939 31.5914 54.1057 30.5547C41.6395 33.6779 32.2171 45.2758 32.7289 58.5509C32.9369 69.2542 40.0548 79.3434 50.0813 83.0113C53.3266 84.2362 56.7832 84.7941 60.2134 84.6852Z" fill="white"></path><path d="M60.2134 90.0731L60.2062 90.373L60.5134 90.3804V90.0731H60.2134ZM60.2134 84.6852H60.5134V84.3755L60.2039 84.3853L60.2134 84.6852ZM32.6364 47.1313L32.9105 47.2533L32.9114 47.2511L32.6364 47.1313ZM55.2249 30.0001L55.3381 30.2779L55.1818 29.7032L55.2249 30.0001ZM54.3358 30.5909L54.4922 30.8469L54.5104 30.8358L54.5268 30.8222L54.3358 30.5909ZM51.8146 32.1307L51.9494 32.3987L51.9604 32.3932L51.971 32.3867L51.8146 32.1307ZM45.3107 36.9991L45.5283 37.2057L45.5313 37.2024L45.3107 36.9991ZM41.2895 61.5123L41.5624 61.3876L41.5607 61.3841L41.2895 61.5123ZM53.3695 72.7108L53.4733 72.4294L53.4721 72.4289L53.3695 72.7108ZM58.6584 73.9027H58.9584V73.6295L58.6864 73.604L58.6584 73.9027ZM58.6584 79.1222L58.6171 79.4194L58.9584 79.4668V79.1222H58.6584ZM44.3599 36.0483L44.1546 35.8295L44.1521 35.8319L44.3599 36.0483ZM54.1057 30.5547L54.1885 30.8431L54.0328 30.2637L54.1057 30.5547ZM32.7289 58.5509L33.0289 58.5451L33.0287 58.5394L32.7289 58.5509ZM50.0813 83.0113L50.1872 82.7306L50.1843 82.7296L50.0813 83.0113ZM60.5134 90.0731V84.6852H59.9134V90.0731H60.5134ZM32.3624 47.0092C23.3748 67.182 38.2564 89.8465 60.2062 90.373L60.2206 89.7732C38.6838 89.2565 24.1033 67.0213 32.9105 47.2533L32.3624 47.0092ZM55.1818 29.7032C45.3359 31.134 36.3822 37.7886 32.3614 47.0114L32.9114 47.2511C36.8471 38.2235 45.6222 31.6987 55.268 30.2969L55.1818 29.7032ZM54.5268 30.8222C54.864 30.5438 55.1405 30.3584 55.3381 30.2779L55.1116 29.7223C54.8255 29.8389 54.4909 30.0738 54.1448 30.3596L54.5268 30.8222ZM54.1794 30.3349L51.6583 31.8747L51.971 32.3867L54.4922 30.8469L54.1794 30.3349ZM45.5313 37.2024C47.3516 35.2267 49.543 33.6084 51.9494 32.3987L51.6799 31.8626C49.2128 33.1029 46.9622 34.764 45.09 36.7958L45.5313 37.2024ZM41.5607 61.3841C37.8345 53.5054 39.5075 43.5488 45.5283 37.2057L45.0931 36.7926C38.9051 43.3119 37.1842 53.5337 41.0183 61.6406L41.5607 61.3841ZM53.4721 72.4289C48.2695 70.5353 43.8833 66.4624 41.5623 61.3876L41.0167 61.6371C43.4036 66.8562 47.9114 71.0435 53.2669 72.9927L53.4721 72.4289ZM58.6864 73.604C56.9151 73.4379 55.1579 73.0505 53.4733 72.4294L53.2657 72.9923C55.0013 73.6323 56.8097 74.0307 58.6304 74.2013L58.6864 73.604ZM58.9584 79.1222V73.9027H58.3584V79.1222H58.9584ZM44.1521 35.8319C28.3316 51.0207 37.936 76.5484 58.6171 79.4194L58.6997 78.8251C38.4759 76.0176 29.1367 51.0794 44.5676 36.2647L44.1521 35.8319ZM54.0229 30.2664C50.3674 31.3156 46.9475 33.2105 44.1546 35.8295L44.5651 36.2671C47.2856 33.7161 50.6205 31.8672 54.1885 30.8431L54.0229 30.2664ZM33.0287 58.5394C32.5227 45.4151 41.8411 33.9366 54.1786 30.8457L54.0328 30.2637C41.4378 33.4191 31.9116 45.1366 32.4291 58.5625L33.0287 58.5394ZM50.1843 82.7296C40.2757 79.1048 33.2344 69.1263 33.0288 58.5451L32.4289 58.5568C32.6393 69.3821 39.8338 79.5821 49.9782 83.2931L50.1843 82.7296ZM60.2039 84.3853C56.8123 84.493 53.395 83.9413 50.1872 82.7307L49.9753 83.292C53.2582 84.531 56.7541 85.0952 60.2229 84.985L60.2039 84.3853Z" fill="white" mask="url(#path-4-outside-2_3270_2612)"></path><path d="M49.4868 66.1527V62.3913C49.4868 61.8584 49.6711 61.4118 50.0397 61.0513C50.4084 60.6908 50.851 60.5106 51.3675 60.5106H54.4472C54.7607 60.5106 55.0584 60.589 55.3405 60.7457C55.6226 60.9024 55.8499 61.114 56.0223 61.3804C56.4768 61.9917 57.0373 62.4697 57.7037 62.8145C58.3701 63.1593 59.0791 63.3317 59.8307 63.3317C60.5987 63.3317 61.3159 63.1593 61.9823 62.8145C62.6487 62.4697 63.201 61.9917 63.6392 61.3804C63.8429 61.114 64.0821 60.9024 64.3567 60.7457C64.6313 60.589 64.9171 60.5106 65.2143 60.5106H68.294C68.8268 60.5106 69.2735 60.6908 69.634 61.0513C69.9944 61.4118 70.1747 61.8584 70.1747 62.3913V66.1527H63.5922V64.0134C63.0436 64.4053 62.4518 64.703 61.8168 64.9068C61.1817 65.1105 60.5197 65.2124 59.8307 65.2124C59.1568 65.2124 58.4986 65.1064 57.856 64.8946C57.2134 64.6827 56.6179 64.3811 56.0693 63.9899V66.1527H49.4868ZM52.3079 59.5702C51.5243 59.5702 50.8582 59.296 50.3096 58.7474C49.7611 58.1989 49.4868 57.5328 49.4868 56.7492C49.4868 55.9499 49.7611 55.2797 50.3096 54.7387C50.8582 54.1977 51.5243 53.9275 52.3079 53.9281C53.1072 53.9281 53.7774 54.1986 54.3184 54.7396C54.8594 55.2806 55.1296 55.9505 55.129 56.7492C55.129 57.5328 54.8585 58.1989 54.3174 58.7474C53.7764 59.296 53.1066 59.5702 52.3079 59.5702ZM67.3536 59.5702C66.57 59.5702 65.9039 59.296 65.3553 58.7474C64.8068 58.1989 64.5325 57.5328 64.5325 56.7492C64.5325 55.9499 64.8068 55.2797 65.3553 54.7387C65.9039 54.1977 66.57 53.9275 67.3536 53.9281C68.1529 53.9281 68.8231 54.1986 69.3641 54.7396C69.9051 55.2806 70.1753 55.9505 70.1747 56.7492C70.1747 57.5328 69.9042 58.1989 69.3631 58.7474C68.8221 59.296 68.1523 59.5702 67.3536 59.5702Z" fill="white"></path><rect x="49.4868" y="65.6238" width="6.5825" height="9.22726" fill="white"></rect><path d="M63.592 65.6238H70.1745V87.1345L63.592 88.4862V65.6238Z" fill="white"></path><path d="M70.439 87.2666L68.9991 88.1776L64.8295 90.3954L63.592 90.4642V88.1776L68.9991 87.0903L70.439 87.2666Z" fill="white"></path></svg>