<?xml version="1.0" encoding="UTF-8"?>
<svg xmlns="http://www.w3.org/2000/svg" width="164" height="33" fill="none">
  <path d="M28.105 4.8a4.02 4.02 0 0 0-2.837-1.172c-1.02 0-2.066.39-2.854 1.182l-4.67 4.647-4.68-4.647a4.025 4.025 0 0 0-2.845-1.173A4.025 4.025 0 0 0 7.374 4.81l-5.7 5.634a3.987 3.987 0 0 0 0 5.651l16.052 15.943 16.051-15.943c1.575-1.555 1.566-4.087 0-5.651L28.096 4.8h.009zM76.16 21.019c7.757 0 11.739-2.417 11.739-7.615 0-4.488-3.284-7.474-10.415-7.474-8.643 0-12.097 3.83-12.884 10.69-1.262-.08-2.64-.106-4.519-.115v-1.128c0-6.958-2.899-9.473-10.629-9.473-3.776 0-7.104.56-9.135 1.377l.304 5.554c1.772-.933 4.411-1.83 6.916-1.83 3.534 0 4.608 1.448 4.608 4.923v.515c-.25 0-.868-.009-1.208-.009-8.804 0-12.884 2.648-12.884 7.553 0 4.906 2.532 8.034 9.753 8.034 3.802 0 7.56-.533 12.4-.533-.357-2.026-.366-4.941-.366-6.94 0-1.058.053-2.32.107-3.75 2.067.017 3.588.07 4.59.115.743 8.13 4.984 11.143 13.815 11.143 3.266 0 6.567-.55 8.294-1.35l-.304-5.554c-1.718.986-4.107 1.795-6.729 1.795-4.34 0-6.692-2.248-6.692-5.803v-.169c.77.036 2.308.062 3.22.062l.019-.018zm-26.467 6.159c-2.684 0-3.829-.889-3.829-3.12 0-2.23 1.459-3.367 5.127-3.367.34 0 .752-.01 1.047.017-.018 2.08-.063 4.506.053 6.194-.635.17-1.574.276-2.389.276h-.009zm23.21-10.442v-.124c0-3.484 1.11-6.043 4.33-6.043 1.826 0 2.998.95 2.998 2.675 0 2.426-1.629 3.554-5.01 3.554-.824 0-1.683-.009-2.318-.062zm30.868 9.749c-2.595 0-3.355-1.022-3.355-4.764v-9.659h5.118V6.694h-5.038c0-1.902.152-4.71.314-6.639h-4.743c-.626 4.692-1.995 7.11-6.307 7.82-.018 1.262.053 2.986 0 4.186h2.872c-.045 2.666-.126 7.536-.126 11.97 0 5.66 2.953 7.98 8.5 7.98 2.702 0 4.689-.391 5.351-.578l-.34-5.518c-.483.32-1.441.569-2.246.569zm53.979-11.108c0-6.958-2.899-9.473-10.62-9.473-3.785 0-7.104.56-9.135 1.377l.304 5.554c1.771-.933 4.402-1.83 6.916-1.83 3.534 0 4.608 1.448 4.608 4.923v.515c-.251 0-.868-.009-1.208-.009-8.813 0-12.884 2.648-12.884 7.553 0 4.906 2.532 8.034 9.752 8.034 3.803 0 7.561-.533 12.392-.533-.348-2.026-.357-4.941-.357-6.94 0-2.249.232-5.43.232-9.154v-.017zm-10.388 11.8c-2.693 0-3.829-.888-3.829-3.118s1.458-3.368 5.127-3.368c.331 0 .742-.01 1.038.017-.009 2.08-.063 4.506.062 6.194-.635.17-1.574.276-2.389.276h-.009zm-14.861-7.26c0-2.097.045-4.887.045-4.887 0-6.283-2.774-9.1-10.621-9.1-4.402 0-7.542.765-12.454.765.277 4.407.286 9.855.268 13.231.018 3.43-.116 9.58-.268 11.562h8.428c-.197-1.99-.358-7.705-.34-11.561 0-2.195.027-4.852.116-8.416a9.704 9.704 0 0 1 3.06-.498c2.953 0 3.901 1.378 3.901 5.154 0 0 .045 2.373.045 3.768 0 3.43-.116 9.58-.268 11.562h8.428c-.197-1.991-.367-7.705-.34-11.562v-.017zm29.535-13c0-.542-.331-.773-.984-.773h-1.029v2.683h.447V7.68h.421l.698 1.146h.501l-.761-1.182c.403-.044.707-.248.707-.728zm-1.566.39v-.781h.537c.268 0 .591.035.591.364 0 .391-.296.418-.627.418h-.501zm.483-2.292c-1.288 0-2.398.969-2.398 2.426 0 1.377 1.003 2.426 2.398 2.426 1.28 0 2.389-.969 2.389-2.426 0-1.457-1.109-2.426-2.389-2.426zm0 4.425c-1.163 0-1.879-.897-1.879-1.999 0-1.182.824-2 1.879-2 1.056 0 1.87.827 1.87 2s-.823 2-1.87 2z" fill="#7D3F98"></path>
</svg>
