<?xml version="1.0" encoding="UTF-8"?>
<svg xmlns="http://www.w3.org/2000/svg" width="109" height="60" fill="none">
  <path d="M61.408 54.19c-.767 0-1.224.403-1.543.871v-2.654h-1.13v6.825h1.13v-2.786c0-.767.459-1.225 1.113-1.225.673 0 1.056.44 1.056 1.207v2.804h1.13V56.09c.002-1.152-.643-1.9-1.756-1.9zm5.264 0c-1.41 0-2.412 1.161-2.412 2.574v.018c0 1.525 1.104 2.563 2.533 2.563.907 0 1.554-.366 2.022-.926l-.665-.588c-.392.383-.785.588-1.338.588-.728 0-1.3-.448-1.422-1.252h3.63c.008-.114.018-.216.018-.319 0-1.421-.793-2.658-2.365-2.658zm-1.29 2.228c.103-.767.59-1.302 1.28-1.302.75 0 1.178.57 1.254 1.302h-2.534zM68.69 47.9c0-.945-.344-1-.344-1h-.514c-.858 0-1.715-.858-1.715-1.715v-8.707c0-3.514 2.099-5.615 4.799-5.615 2.314 0 4.028 1.284 4.028 4.113v10.209c0 .857-.857 1.715-1.715 1.715h-.514s-.343.09-.343.964.343 1.344.343 1.344h10.114s.343-.38.343-1.253c0-.875-.343-1.053-.343-1.053h-.515c-.858 0-1.715-.857-1.715-1.715V34.765c0-4.931-3.086-7.328-7.544-7.328-3.299 0-5.828 1.543-7.371 3.813l-.009-2.518c0-.735-.704-.992-1.55-.651-.571.23-3.451 1.243-5.893 1.243-.135.18-.347.546-.347 1.143 0 .525.123.8.343 1.16h.515c.857 0 1.716.856 1.716 1.715v11.843c0 .857-.859 1.715-1.715 1.715h-.516s-.342.056-.342.98c0 .929.342 1.326.342 1.326h10.115c.005.002.347-.36.347-1.306zM49.99 29c-1.53-1-3.448-1.592-5.555-1.592-5.293 0-9.18 3.543-9.18 7.984 0 2.733 1.494 4.954 3.545 6.32l-3.597 4.468s-.459.829-.459 1.654c0 .823.524 1.378.524 1.378h2.55c-1.877 1.11-2.733 2.959-2.733 4.538 0 3.074 2.69 5.593 8.71 5.593 6.064 0 11.7-3.203 11.7-8.24 0-3.588-2.134-6.019-7.472-6.019h-8.07l1.58-2.138c.897.3 1.623.428 2.903.428 5.252 0 9.18-3.588 9.18-7.985a7.251 7.251 0 0 0-1.055-3.763h3.12c.165-.286.343-.682.343-1.341 0-.518-.193-1.078-.338-1.29H49.99V29zm-8.459 20.212h4.783c2.86 0 3.843 1.594 3.843 3.215 0 2.05-1.964 4.14-5.507 4.14-3.33 0-5.209-1.493-5.209-3.713-.002-1.494.852-3.002 2.09-3.642zm2.903-8.483c-2.39 0-3.928-2.007-3.928-5.337 0-3.33 1.536-5.336 3.93-5.336 2.347 0 3.885 2.006 3.885 5.336 0 3.33-1.539 5.337-3.887 5.337zm-24.994 1.307c-.687-.24-1.25-.029-1.25-.029-1.587 2.758-3.023 4.028-5.255 4.028-4.03 0-6.6-3.642-6.6-7.971 0-4.03 1.799-7.973 5.957-7.973 2.614 0 4.623 1.63 4.623 4.114l.059.771s-.08.343 1.007.343c1.088 0 1.383-.343 1.383-.343l-.215-5.613s-.023-.147-.101-.25c-.076-.1-.201-.18-.201-.18-1.672-.94-3.9-1.498-6.513-1.498-6.128 0-11.828 4.113-11.828 11.53 0 6.642 5.014 10.842 10.758 10.842 5.401 0 7.907-3.388 9.022-7.158a1.88 1.88 0 0 0-.846-.613zm7.68-16.128c1.957 0 3.545-1.629 3.545-3.635 0-2.011-1.588-3.638-3.544-3.638-1.957 0-3.545 1.627-3.545 3.638 0 2.006 1.588 3.635 3.545 3.635zm2.83 6.655c0-.857.858-1.715 1.715-1.715h.515s.343-.214.343-1.046c0-.832-.343-1.26-.343-1.26H22.067s-.342.524-.342 1.331c0 .81.342.975.342.975h.514c.859 0 1.716.858 1.716 1.715v12.62c0 .857-.857 1.715-1.715 1.715h-.514s-.343.168-.343.976c0 .808.342 1.332.342 1.332H32.18s.343-.426.343-1.26c0-.83-.343-1.046-.343-1.046h-.514c-.858 0-1.715-.858-1.715-1.715V32.563zm65.336 21.655c-.805 0-1.339.168-1.88.413l.308.906c.449-.186.86-.308 1.412-.308.785 0 1.216.373 1.216 1.057v.095a4.172 4.172 0 0 0-1.364-.206c-1.151 0-2.002.523-2.002 1.62v.017c0 .992.821 1.525 1.757 1.525.747 0 1.262-.309 1.6-.71v.607h1.12v-2.927c0-1.32-.71-2.089-2.167-2.089zm1.074 3.227c0 .617-.562 1.038-1.308 1.038-.534 0-.955-.26-.955-.728v-.02c0-.477.42-.766 1.13-.766.44 0 .841.084 1.13.197v.28h.003zm3.572-2.04v-1.11h-1.13v4.937h1.13v-1.879c0-1.309.692-1.953 1.685-1.953h.066v-1.198c-.873-.04-1.443.467-1.751 1.204zm8.467-9.279c0-.664-.342-.865-.342-.865h-.515c-.858 0-1.713-.858-1.713-1.715V28.473s-.034-.442-.507-.442h-1.305c-.257 0-.454.215-.454.215l-1.818 2.374c-.212.278-.457.001-.457.001v.002c-1.217-1.433-3.26-3.194-6.946-3.194-5.53 0-10.8 4.03-10.8 11.402 0 6.898 4.542 10.97 10.114 10.97 3.172 0 5.186-1.329 6.773-3.387v2.55s.02.58.674.726c.59.128 1.04-.06 1.04-.06l5.915-2.528c-.003.002.341-.31.341-.976zm-13.63.85c-3.815 0-5.4-3.771-5.4-8.358 0-4.585 1.585-8.357 5.4-8.357 3.813 0 5.398 3.772 5.398 8.357.003 4.587-1.582 8.358-5.398 8.358zm-22.618 7.242c-.805 0-1.337.168-1.878.413l.308.906c.448-.186.858-.308 1.41-.308.787 0 1.217.373 1.217 1.057v.095a4.175 4.175 0 0 0-1.366-.206c-1.152 0-2.002.523-2.002 1.62v.017c0 .992.822 1.525 1.758 1.525.747 0 1.261-.309 1.598-.71v.607h1.122v-2.927c.003-1.32-.707-2.089-2.167-2.089zm1.076 3.227c0 .617-.562 1.038-1.31 1.038-.533 0-.953-.26-.953-.728v-.02c0-.477.42-.766 1.13-.766.439 0 .841.084 1.13.197v.28h.003zm31.407-3.255c-1.411 0-2.413 1.161-2.413 2.574v.018c0 1.525 1.104 2.563 2.534 2.563.907 0 1.554-.366 2.022-.926l-.666-.588c-.391.383-.786.588-1.337.588-.729 0-1.3-.448-1.422-1.252h3.629c.008-.114.019-.216.019-.319 0-1.421-.794-2.658-2.366-2.658zm-1.29 2.228c.103-.767.588-1.302 1.28-1.302.749 0 1.178.57 1.253 1.302h-2.533zm-13.034 1.944c-.87 0-1.476-.71-1.476-1.59v-.018c0-.86.598-1.572 1.42-1.572.57 0 .936.253 1.281.617l.701-.757c-.458-.504-1.037-.85-1.973-.85-1.477 0-2.563 1.177-2.563 2.58v.02c0 1.402 1.085 2.55 2.553 2.55.962 0 1.532-.383 2.02-.924l-.682-.673c-.355.364-.748.617-1.281.617zm-13.448-5.957h-1.13v6.825h1.129l.001-6.825zm2.844.533h-1.132v1.356h-.626v.973h.626v2.599c0 1.084.588 1.448 1.422 1.448.42 0 .738-.094 1.019-.252v-.926a1.513 1.513 0 0 1-.701.168c-.384 0-.607-.178-.607-.617v-2.422h1.327v-.973h-1.327l-.001-1.354zm5.143 1.252c-.767 0-1.225.403-1.543.871v-2.654h-1.13v6.825h1.13v-2.786c0-.767.458-1.225 1.114-1.225.673 0 1.056.44 1.056 1.207v2.804h1.13V56.09c0-1.152-.646-1.9-1.757-1.9z" fill="#03F"></path>
  <path fill-rule="evenodd" clip-rule="evenodd" d="M24.498 9.864a7.458 7.458 0 0 1 2.655-5.692 7.455 7.455 0 0 1 2.632 5.702 7.451 7.451 0 0 1-2.654 5.694 7.455 7.455 0 0 1-2.633-5.704zm8.037-5.838a5.654 5.654 0 0 0 .19 4.764A5.66 5.66 0 0 0 36.049.805a5.66 5.66 0 0 0-3.514 3.221zM18.042 5.53a5.655 5.655 0 0 0 3.501 3.234 5.654 5.654 0 0 0-1.183-6.767 5.656 5.656 0 0 0-2.108-1.23 5.654 5.654 0 0 0-.21 4.763zM8.856 16.84a5.655 5.655 0 0 0 4.763-.19 5.664 5.664 0 0 0-7.984-3.325 5.663 5.663 0 0 0 3.221 3.515zm34.989-3.63a5.655 5.655 0 0 0-3.234 3.503 5.656 5.656 0 0 0 6.767-1.185 5.656 5.656 0 0 0 1.23-2.108 5.654 5.654 0 0 0-4.763-.21zm-4.337 6.457a7.452 7.452 0 0 0-5.703 2.634 7.451 7.451 0 0 0 5.691 2.655 7.452 7.452 0 0 0 5.705-2.634 7.448 7.448 0 0 0-5.694-2.655zm-5.476-8.01a7.45 7.45 0 0 0-2.17 5.895 7.462 7.462 0 0 0 8.075-8.042 7.452 7.452 0 0 0-5.905 2.148zm-19.281 8.01a7.45 7.45 0 0 0-5.691 2.656 7.447 7.447 0 0 0 5.703 2.634 7.451 7.451 0 0 0 5.694-2.655 7.452 7.452 0 0 0-5.703-2.634l-.003-.001zm5.475-8.01a7.459 7.459 0 0 0-5.903-2.146 7.457 7.457 0 0 0 8.075 8.043 7.446 7.446 0 0 0-2.172-5.896z" fill="#03CC54"></path>
</svg>
