<?xml version="1.0" encoding="UTF-8"?>
<svg xmlns="http://www.w3.org/2000/svg" width="184" height="33" fill="none">
  <path d="M146.804 29.802c0 .972-.703 1.713-1.671 1.713-.967 0-1.682-.77-1.682-1.713 0-.943.737-1.735 1.682-1.735.946 0 1.671.785 1.671 1.735zm-3.03 0c0 .77.586 1.415 1.359 1.415s1.36-.612 1.36-1.415-.594-1.43-1.36-1.43c-.766 0-1.359.645-1.359 1.43zm.711-.936h.689c.267 0 .681.078.681.534 0 .347-.256.472-.491.501l.601.803h-.392l-.572-.784h-.179v.784h-.337v-1.838zm.337.291v.494h.337c.18 0 .344-.033.344-.25 0-.218-.164-.244-.344-.244h-.337zm34.821.645c0 .972-.703 1.713-1.671 1.713-.967 0-1.682-.77-1.682-1.713 0-.943.737-1.735 1.682-1.735.946 0 1.671.785 1.671 1.735zm-3.03 0c0 .77.586 1.415 1.359 1.415s1.36-.612 1.36-1.415-.594-1.43-1.36-1.43c-.766 0-1.359.645-1.359 1.43zm.711-.936h.689c.267 0 .681.078.681.534 0 .347-.256.472-.491.501l.601.803h-.392l-.572-.784h-.179v.784h-.337v-1.838zm.337.291v.494h.337c.179 0 .344-.033.344-.25 0-.218-.165-.244-.344-.244h-.337z" fill="#1355E9"></path>
  <path d="M183.022 22.762h-8.703l.004 8.752h-13.854v-8.752h-8.707V8.808h8.707V.055h13.85v8.753h8.703v13.954z" fill="#1355E9"></path>
  <path d="M159.647 12.127h5.76c.572.003 1.03-.162 1.297-.442.341-.35.367-.877-.102-1.455-.832-1.024-.114-2.004.762-1.971.872.037 1.594.947.766 1.97-.473.58-.447 1.102-.103 1.456.264.276.726.445 1.297.445h5.911c-.623-1.355-.817-1.716-1.887-2.644-1.419-1.234-4.06-2.373-5.915-2.373-2.37 0-4.514.97-6.068 2.531a8.695 8.695 0 0 0-1.722 2.483h.004zm2.418 10.344c.55-1.04 2.95-5.537 3.701-6.948.832-1.569-.077-2.225-1.304-2.298-1.147-.067-3.012-.376-5.105-.424a8.767 8.767 0 0 0-.505 2.94 8.633 8.633 0 0 0 3.213 6.73zm10.132.45s-3.858-5.611-4.071-5.976c-.22-.36-.403-.586-.766-.586s-.546.221-.762.586c-.191.32-3.298 4.859-4.02 5.913a8.484 8.484 0 0 0 4.855 1.51 8.42 8.42 0 0 0 4.764-1.448zm3.818-7.18a8.646 8.646 0 0 0-.513-2.955c-2.147.037-4.067.369-5.236.439-1.235.073-2.14.733-1.312 2.298a1601.87 1601.87 0 0 1 3.738 7.036 8.629 8.629 0 0 0 3.323-6.815v-.003z" fill="#fff"></path>
  <path d="M165.656 11h-3.953c.872-1.168 2.14-2.045 3.481-2.336-.436 1.53.472 1.64.472 2.336zm7.369 0c-.996-1.002-2.14-2.045-3.484-2.336.436 1.533-.473 1.643-.473 2.336h3.957zm-5.661 7.003c-.253 0-3.082 4.49-3.082 4.49.832.435 1.887.656 3.082.656 1.195 0 2.25-.218 3.085-.656 0 0-2.832-4.49-3.085-4.49zm3.012-3.61c-.322.036-.616.07-.322.618.285.546 2.935 5.578 2.935 5.578 1.304-1.64 2.14-3.684 1.634-6.528 0 0-3.991.328-4.247.328v.004zm-6.024 0c-.253 0-4.243-.328-4.243-.328-.51 2.844.326 4.888 1.63 6.527 0 0 2.65-5.032 2.943-5.577.286-.549 0-.586-.33-.619v-.004zM20.018 25.578H8.534l-2.297 5.935H.865L11.404 5.087h6.027l10.583 26.427h-5.702l-2.297-5.935h.003zm-1.722-4.575l-4.02-10.428-4.02 10.428h8.04zm11.759-9.235h5.001v2.803c1.026-2.103 2.994-3.34 5.577-3.34 4.51 0 7.424 3.175 7.424 8.328v11.957h-5.002V20.304c0-2.681-1.517-4.372-3.979-4.372s-4.02 1.69-4.02 4.372v11.213h-5.001V11.765v.004zm19.849 0h3.444V6.656h5.086v5.113h5.251v4.45h-5.25v8.41c0 1.853.74 2.719 2.212 2.719.942 0 1.847-.413 2.338-.988l2.217 3.75c-1.066 1.072-2.913 1.938-5.331 1.938-3.976 0-6.52-2.472-6.52-7.298v-8.535h-3.444v-4.45l-.003.004zm17.735-8.616h5.001v11.42c1.026-2.104 2.994-3.342 5.577-3.342 4.511 0 7.424 3.176 7.424 8.33v11.956H80.64V20.304c0-2.681-1.516-4.372-3.979-4.372-2.462 0-4.02 1.69-4.02 4.372v11.213H67.64V3.15v.004zm20.714 18.47c0-5.732 4.225-10.388 9.882-10.388 5.658 0 9.923 4.328 9.923 10.02 0 .66-.04 1.444-.125 1.772H93.475c.532 2.722 2.584 4.615 5.577 4.615a6.69 6.69 0 0 0 4.841-2.059l2.583 3.463c-1.517 1.69-4.305 3.01-7.585 3.01-6.112 0-10.538-4.66-10.538-10.43v-.003zm5.25-2.103h9.392c-.616-2.638-2.378-4.041-4.676-4.041-2.297 0-4.1 1.65-4.716 4.04zm17.351 11.997V11.765h5.001v3.01c1.026-2.144 2.954-3.547 5.537-3.547 2.994 0 5.291 1.484 6.438 4.122 1.026-2.35 2.913-4.122 6.028-4.122 4.551 0 7.545 3.05 7.545 8.329v11.957h-5.046V20.3c0-2.682-1.477-4.373-3.855-4.373s-3.895 1.69-3.895 4.373v11.213h-5.002V20.3c0-2.682-1.476-4.373-3.854-4.373-2.379 0-3.896 1.69-3.896 4.373v11.213h-5.001v.003z" fill="#1355E9"></path>
</svg>
