<svg xmlns="http://www.w3.org/2000/svg" width="80" height="80" viewBox="0 0 80 80" fill="none"><rect width="80" height="80" rx="40" fill="#C01933"></rect><path d="M57.7637 48.9973C55.1957 46.258 53.1048 43.9879 51.8918 42.6227C52.7874 41.5749 53.6404 40.4655 54.3799 39.2413C55.2613 37.7826 57.9463 33.3465 55.6941 29.1467C54.0111 26.0052 50.2709 24.3595 46.8056 25.2326C44.5799 25.7935 42.8082 27.1588 41.8186 29.0796C40.696 31.2563 40.634 33.9744 41.6484 36.5373C42.317 38.2236 43.2445 39.7599 44.2713 41.1816L47.7029 37.4087C47.1372 36.5426 46.6459 35.6501 46.2788 34.724C45.7965 33.5034 45.7841 32.2387 46.2469 31.3392C46.5892 30.6759 47.1709 30.2473 48.0275 30.0321C48.2562 29.9739 48.4886 29.9457 48.7209 29.9457C49.7761 29.9457 50.794 30.526 51.3048 31.4767C51.9255 32.6356 51.5371 34.3413 50.1166 36.689C49.7371 37.3169 49.3061 37.9184 48.8432 38.5093C48.7954 38.5834 48.7404 38.6557 48.6801 38.7245L45.2857 42.5486L42.7781 45.2032L42.7745 45.1997C41.8328 46.1998 40.9195 47.1523 40.0009 48.0836C39.0822 47.1505 38.1689 46.1998 37.2272 45.1997L37.2236 45.2032L34.716 42.5486L31.3216 38.7245C31.2596 38.6557 31.2064 38.5852 31.1585 38.5111C30.6956 37.9219 30.2647 37.3187 29.8851 36.6908C28.4646 34.343 28.0762 32.6374 28.6969 31.4785C29.2077 30.5278 30.2256 29.9475 31.2808 29.9475C31.5114 29.9475 31.7437 29.9757 31.9743 30.0339C32.8291 30.2491 33.4125 30.6777 33.7548 31.3409C34.2177 32.2387 34.2052 33.5052 33.7229 34.7258C33.3558 35.6536 32.8645 36.5444 32.2988 37.4104L35.7304 41.1834C36.7572 39.7617 37.6847 38.2253 38.3533 36.5391C39.3677 33.9779 39.3057 31.2598 38.1831 29.0814C37.1935 27.1623 35.4218 25.7953 33.1962 25.2344C29.7291 24.3595 25.9907 26.0052 24.3059 29.1467C22.0554 33.3465 24.7386 37.7826 25.62 39.2413C26.3613 40.4655 27.2143 41.5749 28.1082 42.6227C26.8951 43.9879 24.8042 46.258 22.2363 48.9973C21.4808 49.8034 20.7271 50.6042 20 51.3733H26.8135C28.7519 49.2989 30.3711 47.5386 31.4759 46.3074C34.4801 49.5582 36.9736 52.1688 39.9743 54.9998L40.0026 54.9698L40.031 54.9998C43.0299 52.1688 45.5251 49.5582 48.5293 46.3074C49.6342 47.5386 51.2534 49.2972 53.1917 51.3733H60.0053C59.2782 50.6042 58.5245 49.8034 57.769 48.9973H57.7637Z" fill="white"></path></svg>