<svg xmlns="http://www.w3.org/2000/svg" width="80" height="80" viewBox="0 0 80 80" fill="none"><rect width="80" height="80" rx="40" fill="#C01933"></rect><path d="M53.2559 28.7402C46.7235 35.9173 40.1911 43.0944 33.6587 50.2714L35.7351 52.3319C42.0546 45.356 49.8095 36.8317 55.3262 30.7926L53.2579 28.7402H53.2559Z" fill="white"></path><path d="M37.4201 51.9805C37.074 52.3117 36.7279 52.645 36.3818 52.9782L38.3088 54.8904C45.2978 48.1664 52.2869 41.4405 59.2759 34.7165L57.1933 32.6479C50.7367 39.2154 40.3279 49.2048 37.4221 51.9805H37.4201Z" fill="white"></path><path d="M33.2408 49.8596C37.6578 44.0908 46.5493 32.5428 51.1158 26.6175L50.0448 25.5547C49.7602 25.2723 49.4161 25.0894 49.0537 25C43.0332 32.5428 37.0148 40.0857 30.9944 47.6285L33.2408 49.8576V49.8596Z" fill="white"></path><path d="M40.9813 31.4882L38.823 29.3465C36.1015 33.695 33.425 37.9703 30.7506 42.2457C30.6319 42.1888 30.5111 42.1319 30.3902 42.075L37.0537 27.5908L35.0018 25.5547C34.9261 25.4795 34.8462 25.4145 34.7643 25.3536C33.3984 28.8385 32.0694 32.2238 30.7425 35.6071C30.6544 35.5888 30.5663 35.5705 30.4783 35.5543C30.4619 35.3592 31.7008 29.3485 32.3827 25.252C32.2455 25.3373 32.1145 25.4348 31.9957 25.5547L21.8735 35.5949C21.0422 36.4199 21.0422 37.7549 21.8735 38.5799L30.7547 47.3928C31.8913 45.6107 36.9062 37.8159 40.9793 31.4862L40.9813 31.4882Z" fill="white"></path><path d="M42.8693 52.3349C41.5444 53.3793 40.2133 54.4197 38.8864 55.4601L40.9423 57.5003L41.0201 57.423L41.0979 57.5003L60.003 38.7407C55.8849 42.0793 47.5116 48.6773 42.8713 52.3349H42.8693Z" fill="white"></path></svg>